<svg width="96" height="96" viewBox="0 0 96 96" fill="none" xmlns="http://www.w3.org/2000/svg">
<path d="M76 13H34C30.134 13 27 16.134 27 20V76C27 79.866 30.134 83 34 83H76C79.866 83 83 79.866 83 76V20C83 16.134 79.866 13 76 13Z" fill="#323847"/>
<path d="M69 13H40.9927V20C40.9927 21.8565 41.7304 23.637 43.0435 24.9497C44.3566 26.2625 46.1376 27 47.9946 27H61.9982C63.8552 27 65.6361 26.2625 66.9492 24.9497C68.2623 23.637 69 21.8565 69 20V13ZM23.8033 35.015L46.9793 58.1499C47.619 58.8207 47.9817 59.7083 47.9946 60.6349V65.4999C47.9946 66.4282 47.6257 67.3184 46.9692 67.9748C46.3126 68.6312 45.4222 68.9999 44.4937 68.9999H39.6274C39.1667 69.0026 38.7099 68.9143 38.2834 68.7401C37.8568 68.566 37.4689 68.3093 37.1418 67.9849L14.0008 44.815C13.3593 44.1607 13 43.2811 13 42.365C13 41.4488 13.3593 40.5692 14.0008 39.915L18.902 35.015C19.5564 34.3737 20.4363 34.0145 21.3527 34.0145C22.269 34.0145 23.1489 34.3737 23.8033 35.015Z" fill="#69C647"/>
</svg>
