<svg width="36" height="36" viewBox="0 0 36 36" fill="none" xmlns="http://www.w3.org/2000/svg">
<path d="M33.8836 18.9914C34.5164 19.6242 34.875 20.482 34.875 21.375C34.875 22.268 34.5164 23.1258 33.8836 23.7586C33.2508 24.3914 32.393 24.75 31.5 24.75H4.5C3.60492 24.75 2.74641 24.3914 2.11359 23.7586C1.48078 23.1258 1.125 22.268 1.125 21.375C1.125 20.482 1.48078 19.6242 2.11359 18.9914C2.74641 18.3586 3.60492 18 4.5 18H31.5C32.393 18 33.2508 18.3586 33.8836 18.9914ZM33.4195 27.3305C33.6305 27.5414 33.75 27.8297 33.75 28.125V29.25C33.75 30.382 33.2789 31.5914 32.4352 32.4352C31.5914 33.2789 30.382 33.75 29.25 33.75H6.75C5.5568 33.75 4.41211 33.2789 3.56836 32.4352C2.72391 31.5914 2.25 30.382 2.25 29.25V28.125C2.25 27.8297 2.36883 27.5414 2.57977 27.3305C2.7907 27.1195 3.07687 27 3.375 27H32.625C32.9203 27 33.2086 27.1195 33.4195 27.3305ZM3.54305 15.525C3.22945 15.3703 2.95523 15.1523 2.74008 14.8781C2.52492 14.6039 2.37586 14.2875 2.30273 13.95C2.22961 13.6055 2.23594 13.2539 2.31961 12.9164C3.86578 6.82172 10.3008 2.25 18 2.25C25.6992 2.25 32.1328 6.82172 33.6797 12.9164C33.7641 13.2539 33.7711 13.6055 33.6937 13.95C33.6234 14.2875 33.4758 14.6039 33.2578 14.8781C32.9836 15.1523 32.7727 15.3703 32.4562 15.525C32.1469 15.6727 31.8023 15.75 31.4508 15.75H4.54711C4.19977 15.75 3.85594 15.6727 3.54305 15.525ZM26.2055 8.20547C25.9945 8.41641 25.875 8.70469 25.875 9C25.875 9.225 25.9383 9.44297 26.0648 9.62578C26.1914 9.80859 26.3039 9.95625 26.5711 10.0406C26.775 10.0617 27 10.1461 27.218 10.1039C27.4359 10.0617 27.6398 9.95625 27.7945 9.79453C27.9562 9.63984 28.0617 9.43594 28.1039 9.21797C28.1461 9 28.0617 8.775 28.0406 8.57109C27.9562 8.30391 27.8086 8.19141 27.6258 8.06484C27.443 7.93828 27.225 7.81172 27 7.81172C26.7047 7.81172 26.4164 7.99453 26.2055 8.20547ZM17.2055 5.95477C16.9945 6.1657 16.875 6.45188 16.875 6.75C16.875 6.97219 16.9383 7.19297 17.0648 7.37578C17.1914 7.55859 17.3039 7.70625 17.5711 7.79063C17.775 7.81172 18 7.89609 18.218 7.85391C18.4359 7.81172 18.6398 7.70625 18.7945 7.54453C18.9562 7.38984 19.0617 7.18594 19.1039 6.96938C19.1461 6.75141 19.0617 6.525 19.0406 6.31969C18.9562 6.11367 18.8086 5.93789 18.6258 5.81484C18.443 5.69109 18.225 5.56172 18 5.56172C17.7047 5.56172 17.4164 5.74383 17.2055 5.95477ZM8.20547 8.20547C7.99453 8.41641 7.875 8.70469 7.875 9C7.875 9.225 7.93828 9.44297 8.06484 9.62578C8.19141 9.80859 8.30391 9.95625 8.57109 10.0406C8.775 10.0617 9 10.1461 9.21797 10.1039C9.43594 10.0617 9.63984 9.95625 9.79453 9.79453C9.95625 9.63984 10.0617 9.43594 10.1039 9.21797C10.1461 9 10.0617 8.775 10.0406 8.57109C9.95625 8.30391 9.80859 8.19141 9.62578 8.06484C9.44297 7.93828 9.225 7.81172 9 7.81172C8.70469 7.81172 8.41641 7.99453 8.20547 8.20547Z" fill="#FFCC00"/>
</svg>
