<svg width="46" height="36" viewBox="0 0 46 36" fill="none" xmlns="http://www.w3.org/2000/svg">
<path d="M39.7273 9H33.4545V0H4.18182C1.87136 0 0 2.01375 0 4.5V29.25H4.18182C4.18182 32.9738 6.99409 36 10.4545 36C13.915 36 16.7273 32.9738 16.7273 29.25H29.2727C29.2727 32.9738 32.085 36 35.5455 36C39.0059 36 41.8182 32.9738 41.8182 29.25H46V18L39.7273 9ZM10.4545 32.625C8.71909 32.625 7.31818 31.1175 7.31818 29.25C7.31818 27.3825 8.71909 25.875 10.4545 25.875C12.19 25.875 13.5909 27.3825 13.5909 29.25C13.5909 31.1175 12.19 32.625 10.4545 32.625ZM38.6818 12.375L42.7905 18H33.4545V12.375H38.6818ZM35.5455 32.625C33.81 32.625 32.4091 31.1175 32.4091 29.25C32.4091 27.3825 33.81 25.875 35.5455 25.875C37.2809 25.875 38.6818 27.3825 38.6818 29.25C38.6818 31.1175 37.2809 32.625 35.5455 32.625Z" fill="#FFCC00"/>
</svg>
