<svg width="36" height="36" viewBox="0 0 36 36" fill="none" xmlns="http://www.w3.org/2000/svg">
<path d="M18 0C8.05645 0 0 8.05645 0 18C0 27.9435 8.05645 36 18 36C27.9435 36 36 27.9435 36 18C36 8.05645 27.9435 0 18 0ZM24.713 22.7177L23.2614 24.5323C23.1661 24.6514 23.0483 24.7505 22.9147 24.8241C22.7811 24.8977 22.6344 24.9442 22.4828 24.9611C22.3312 24.9779 22.1778 24.9647 22.0313 24.9223C21.8848 24.8799 21.7481 24.809 21.629 24.7137L16.7661 21.105C16.4263 20.833 16.1521 20.488 15.9636 20.0956C15.7752 19.7033 15.6774 19.2736 15.6774 18.8383V7.54839C15.6774 7.24039 15.7998 6.94501 16.0176 6.72723C16.2353 6.50945 16.5307 6.3871 16.8387 6.3871H19.1613C19.4693 6.3871 19.7647 6.50945 19.9824 6.72723C20.2002 6.94501 20.3226 7.24039 20.3226 7.54839V18L24.5323 21.0847C24.6514 21.18 24.7506 21.2979 24.8242 21.4315C24.8978 21.5652 24.9443 21.7121 24.961 21.8638C24.9778 22.0154 24.9646 22.1689 24.922 22.3154C24.8794 22.462 24.8084 22.5987 24.713 22.7177Z" fill="#FFCC00"/>
</svg>
