<svg width="138" height="96" viewBox="0 0 138 96" fill="none" xmlns="http://www.w3.org/2000/svg">
<path d="M119.666 80.423C120.698 61.7245 116.768 42.9602 102.376 29.065C89.3859 16.5231 71.762 14.1597 63.3776 32.6589C59.4085 41.416 60.8412 54.2717 69.7115 59.8408C79.5937 66.0453 87.3225 56.4889 87 49C86.2469 31.5088 56.6781 33.2536 36.5 32.6589C12.6044 31.9547 0.852925 10.698 0.999961 10.6289" stroke="white" stroke-miterlimit="1.5" stroke-linecap="round" stroke-linejoin="round"/>
<path d="M136.351 66.7485C134.253 67.321 132.627 68.6527 130.933 69.9029C125.372 74.0077 120.748 80.107 119.633 86.8446C118.38 79.5722 114.171 70.552 106.601 67.7139" stroke="white" stroke-miterlimit="1.5" stroke-linecap="round" stroke-linejoin="round"/>
</svg>
